<svg xmlns="http://www.w3.org/2000/svg" enable-background="new 0 0 512 512" viewBox="0 0 512 512" id="add">
  <path fill="#e0e6e9" d="M287.383,1H70.072C36.185,1,8.727,28.457,8.727,62.344v371.857
				c0,33.887,27.457,61.344,61.344,61.344h217.311c8.624,0,16.835-1.782,24.284-4.997l37.06-273.185V62.344
				C348.727,28.457,321.27,1,287.383,1z"></path>
  <circle cx="348.727" cy="356.455" r="139.091" fill="#03e48c"></circle>
  <path fill="#08c07a" d="M348.727,511c-85.216,0-154.545-69.329-154.545-154.545s69.329-154.545,154.545-154.545
				s154.545,69.329,154.545,154.545S433.944,511,348.727,511z M348.727,232.818c-68.173,0-123.636,55.463-123.636,123.636
				s55.463,123.636,123.636,123.636s123.636-55.463,123.636-123.636S416.9,232.818,348.727,232.818z"></path>
  <path fill="#c2ced4" d="M86 109.182h185.455c8.535 0 15.455-6.919 15.455-15.455s-6.919-15.455-15.455-15.455H86c-8.535 0-15.455 6.919-15.455 15.455S77.465 109.182 86 109.182zM271.455 140.091H86c-8.535 0-15.455 6.919-15.455 15.455S77.465 171 86 171h185.455c8.535 0 15.455-6.919 15.455-15.455S279.99 140.091 271.455 140.091zM147.818 201.909H86c-8.535 0-15.455 6.919-15.455 15.455S77.465 232.818 86 232.818h61.818c8.535 0 15.455-6.919 15.455-15.455S156.353 201.909 147.818 201.909zM147.818 263.727H86c-8.535 0-15.455 6.919-15.455 15.455S77.465 294.636 86 294.636h61.818c8.535 0 15.455-6.919 15.455-15.455S156.353 263.727 147.818 263.727z"></path>
  <path fill="#e0e6e9" d="M395.091,341h-30.909v-30.909c0-8.535-6.919-15.455-15.455-15.455s-15.455,6.919-15.455,15.455
				V341h-30.909c-8.535,0-15.455,6.919-15.455,15.455c0,8.535,6.919,15.455,15.455,15.455h30.909v30.909
				c0,8.535,6.919,15.455,15.455,15.455s15.455-6.919,15.455-15.455v-30.909h30.909c8.535,0,15.455-6.919,15.455-15.455
				C410.545,347.919,403.626,341,395.091,341z"></path>
</svg>
