<svg xmlns="http://www.w3.org/2000/svg" xml:space="preserve" id="car" x="0" y="0" enable-background="new 0 0 48 48" version="1.1" viewBox="0 0 48 48">
  <path fill="#fc6356" d="M2,32v-6c0-2.209,1.791-4,4-4l1,0l5.657-5.657c1.5-1.5,3.535-2.343,5.657-2.343h7.88
	c1.817,0,3.579,0.618,4.998,1.753L39,22l3,0c2.209,0,4,1.791,4,4v6H2z" class="colorfc5696 svgShape"></path>
  <path fill="#fc9a92" d="M31.191,15.753C29.773,14.618,28.01,14,26.194,14h-7.88c-2.122,0-4.157,0.843-5.657,2.343L7,22H6
	c-2.209,0-4,1.791-4,4v6h6l15-15v15h5l10.444-10.444L31.191,15.753z" class="colorfc92c3 svgShape"></path>
  <path fill="#4285f4" d="M26.194,16h-7.88c-1.603,0-3.109,0.624-4.243,1.757L9.829,22h25.97l-5.856-4.685
	C28.882,16.467,27.551,16,26.194,16z" class="color9de8fc svgShape"></path>
  <path fill="#d4e2f9" d="M23 16c0 1.959 0 4.342 0 6h2l4.788-4.788C28.754 16.436 27.489 16 26.194 16H23zM20 16h-1.686c-1.603 0-3.109.624-4.243 1.757L9.829 22H14L20 16z" class="colord4f2f9 svgShape"></path>
  <path fill="#f9bd10" d="M43,27c0,1.105,0.895,2,2,2h1v-3c0-0.347-0.043-0.679-0.126-1H45C43.896,25,43,25.895,43,27z" class="colorf99f10 svgShape"></path>
  <path fill="#fbbc05" d="M45.874,25H45c-1.105,0-2,0.895-2,2c0,0.439,0.146,0.841,0.385,1.171l2.594-2.594
	C45.955,25.377,45.924,25.192,45.874,25z" class="colorf9c900 svgShape"></path>
  <circle cx="11" cy="32" r="5" fill="#34a853" class="color5e5e5e svgShape"></circle>
  <path fill="#919191" d="M14.536,28.464C13.631,27.56,12.381,27,11,27c-2.761,0-5,2.239-5,5c0,1.381,0.56,2.631,1.464,3.536
	L14.536,28.464z" class="color919191 svgShape"></path>
  <path fill="#34a853" d="M3,32H2c-0.552,0-1-0.448-1-1v-1c0-0.552,0.448-1,1-1h1c0.552,0,1,0.448,1,1v1C4,31.552,3.552,32,3,32z" class="color5e5e5e svgShape"></path>
  <path fill="#919191" d="M3,29H2c-0.552,0-1,0.448-1,1v1c0,0.276,0.112,0.526,0.293,0.707l2.414-2.414C3.526,29.112,3.276,29,3,29z" class="color919191 svgShape"></path>
  <path fill="#34a853" d="M46,32h-1c-0.552,0-1-0.448-1-1v-1c0-0.552,0.448-1,1-1h1c0.552,0,1,0.448,1,1v1C47,31.552,46.552,32,46,32z" class="color5e5e5e svgShape"></path>
  <path fill="#919191" d="M46,29h-1c-0.552,0-1,0.448-1,1v1c0,0.276,0.112,0.526,0.293,0.707l2.414-2.414C46.526,29.112,46.276,29,46,29
	z" class="color919191 svgShape"></path>
  <path fill="#f9bd10" d="M2,26h2c0.552,0,1,0.448,1,1v1c0,0.552-0.448,1-1,1H2V26z" class="colorf99f10 svgShape"></path>
  <path fill="#fbbc05" d="M4.707,26.293C4.526,26.112,4.276,26,4,26H2v3L4.707,26.293z" class="colorf9c900 svgShape"></path>
  <circle cx="11" cy="32" r="2" fill="#cccccc" class="colorcccccc svgShape"></circle>
  <path fill="#efefef" d="M12.414,30.586C12.052,30.224,11.552,30,11,30c-1.105,0-2,0.895-2,2c0,0.552,0.224,1.052,0.586,1.414
	L12.414,30.586z" class="colorefefef svgShape"></path>
  <circle cx="37" cy="32" r="5" fill="#34a853" class="color5e5e5e svgShape"></circle>
  <path fill="#919191" d="M40.536,28.464C39.631,27.56,38.381,27,37,27c-2.761,0-5,2.239-5,5c0,1.381,0.56,2.631,1.464,3.536
	L40.536,28.464z" class="color919191 svgShape"></path>
  <circle cx="37" cy="32" r="2" fill="#cccccc" class="colorcccccc svgShape"></circle>
  <path fill="#efefef" d="M38.414,30.586C38.052,30.224,37.552,30,37,30c-1.105,0-2,0.895-2,2c0,0.552,0.224,1.052,0.586,1.414
	L38.414,30.586z" class="colorefefef svgShape"></path>
  <rect width="2" height="16" x="22" y="16" fill="#ea4335" class="colorea478a svgShape"></rect>
</svg>
