<svg xmlns="http://www.w3.org/2000/svg" enable-background="new 0 0 2000 2000" viewBox="0 0 2000 2000" id="check-mark">
  <g>
    <path fill="#94c11e" d="M636.0301514,941.7739868c-1.9849243,3.4133301,0.6896973,7.6546021,4.6229248,7.307373
		c18.4021606-1.6243896,59.1046143-0.7600098,80.5534058,34.2729492
		c22.3226318,36.4603271,130.4458618,253.562439,174.9777832,343.3491821
		c7.9881592,16.105957,30.8269043,16.4761963,39.3219604,0.6317139
		c77.5178833-144.581665,368.4866943-662.1703491,682.9470215-901.1252441c0,0-16.9647217-22.3274841-55.2924805-6.6193848
		s-346.6778564,153.7823181-630.8374023,604.7618408C932.3233643,1024.352417,764.121582,721.4973755,636.0301514,941.7739868z"></path>
    <path fill="#94c11e" d="M1266.697876,892.1782227v526.036499H559.1212158V710.6381226h542.9884033
		c65.6082764-72.7365723,128.8405762-131.3226929,186.0084229-178.0292969H381.0921936v1063.5996094h1063.5992432V665.3510132
		C1381.6363525,736.9879761,1321.6314697,814.8666992,1266.697876,892.1782227z"></path>
  </g>
</svg>
