<svg xmlns="http://www.w3.org/2000/svg" xml:space="preserve" id="vote" x="0" y="0" version="1.1" viewBox="0 0 24 24">
  <path id="base_color_46_" fill="#F47920" d="M19.679.1l-.264-.1-.223.174c-.018.014-1.866 1.38-3.342 1.845-.351.11-.845.249-1.41.406-2.716.758-5.027 1.448-5.794 2.212-.836.835-1.39 4.068-1.582 5.363H11l.872-1.6c.271-.077.71-.208 1.055-.34.106.06.226.113.353.169.206.09.432.188.608.326-.327.458-1.307 1.005-2.185 1.446H3a1 1 0 0 0-1 1V22H.5a.5.5 0 0 0-.5.5v1a.5.5 0 0 0 .5.5h15a.5.5 0 0 0 .5-.5v-1a.5.5 0 0 0-.5-.5H14v-8.323c.757-.382 1.502-.652 2.048-.704.14-.013.272-.019.403-.025.722-.034 1.469-.069 2.843-1.066.738-.536 1.163-1.235 1.612-1.975.618-1.017 1.257-2.069 2.844-2.987l.25-.144v-.288C24 1.739 19.722.118 19.679.1z"></path>
  <g id="light_foil_41_">
    <g opacity=".8">
      <path fill="#FFF" d="M12.783 14.384c-.86.592-1.972 1.08-2.981 1.081-.618 0-1.198-.183-1.656-.64-.322-.322-.44-.744-.344-1.221.24-1.184 1.787-2.586 2.75-3.047.364-.174.875-.357 1.15-.556H3a1 1 0 0 0-1 1V23h12v-9.323a10.41 10.41 0 0 0-1.217.707z"></path>
      <path fill="#F2F2F2" d="M12.783 14.384c-.86.592-1.972 1.08-2.981 1.081-.618 0-1.198-.183-1.656-.64-.322-.322-.44-.744-.344-1.221.24-1.184 1.787-2.586 2.75-3.047.364-.174.875-.357 1.15-.556H3a1 1 0 0 0-1 1V23h12v-9.323a10.41 10.41 0 0 0-1.217.707z"></path>
    </g>
    <path fill="#FFF" d="M19.679.1l-.264-.1-.223.174c-.018.014-1.866 1.38-3.342 1.845-.351.11-.845.249-1.41.406-2.716.758-5.027 1.448-5.794 2.212-.836.835-1.39 4.068-1.582 5.363H11l.872-1.6c.271-.077.71-.208 1.055-.34.106.06.226.113.353.169.206.09.432.188.608.326-.491.687-2.458 1.583-3.335 2.002-.964.46-2.51 1.863-2.751 3.047-.097.477.022.9.344 1.221.458.457 1.038.64 1.656.64 1.009 0 2.122-.49 2.981-1.081 1.11-.764 2.422-1.33 3.265-1.41.14-.014.272-.02.403-.026.722-.034 1.469-.069 2.843-1.066.738-.536 1.163-1.235 1.612-1.975.618-1.017 1.257-2.069 2.844-2.987l.25-.144v-.288C24 1.739 19.722.118 19.679.1z" opacity=".4"></path>
  </g>
</svg>
